<?xml version="1.0" encoding="utf-8"?>
<!-- Generator: Adobe Illustrator 27.1.1, SVG Export Plug-In . SVG Version: 6.00 Build 0)  -->
<svg version="1.1" id="Calque_1_-_copie" xmlns="http://www.w3.org/2000/svg" xmlns:xlink="http://www.w3.org/1999/xlink" x="0px"
	 y="0px" viewBox="0 0 394.6 414" style="enable-background:new 0 0 394.6 414;" xml:space="preserve">
<style type="text/css">
	.st0{fill:#2055AA;}
	.st1{fill:#FAFCFC;}
	.st2{opacity:0.4;fill:#FAFCFC;enable-background:new    ;}
	.st3{display:none;fill:none;stroke:#26FF1A;stroke-miterlimit:10;}
	.st4{display:none;fill:none;stroke:#FF1737;stroke-miterlimit:10;}
</style>
<path class="st0" d="M220.2,154.9v162.9H8.4V95.7h147.2L220.2,154.9z"/>
<g>
	<path class="st0" d="M231,282.2l26.9-41.3l111.9-85.2c12.8,3.8,19.8,12.9,20.9,27.1L278.4,268L231,282.2z M246,266.5l4.7,5.9
		l25.3-7.5c3.7-3.3,5.5-5.7,5.5-7.2c0-0.7-0.2-1.1-0.6-1.4c-0.4-0.3-0.9-0.5-1.7-0.5c-1.6,0-4.3,0.9-8.1,2.8
		c3.3-3.1,4.9-5.7,4.9-7.8c0-1-0.3-1.8-0.8-2.3c-0.6-0.5-1.5-0.7-2.6-0.7c-1.2,0-3.8,0.9-7.7,2.8c3.5-2.9,5.2-5.5,5.2-7.8
		c0-0.6-0.2-1-0.5-1.3s-0.8-0.5-1.6-0.5c-2.4,0-5.1,1-7.8,3.2L246,266.5z M267.8,238.4c0.9-0.2,1.7-0.3,2.2-0.3c2.2,0,3.3,1,3.3,3.1
		l-0.1,0.8l67.5-51.7c-1.8-1.3-3.6-2.4-5.2-3.2L267.8,238.4z M275.6,245.1c2.5,0.6,3.7,2.2,3.7,4.8l67.8-52c-0.8-1.8-2-3.4-3.5-4.8
		L275.6,245.1z M281.7,253c1,0.1,1.8,0.3,2.2,0.7c0.5,0.5,0.7,1.1,0.7,2c0,0.7-0.4,1.9-1,3.4l67.4-51.5c-0.7-2.3-1.3-4.4-2.2-6.1
		L281.7,253z"/>
</g>
<rect x="44.6" y="127.3" class="st1" width="57.3" height="7.4"/>
<rect x="44.6" y="156.9" class="st1" width="57.3" height="7.4"/>
<rect x="44.6" y="186.6" class="st1" width="133.7" height="7.4"/>
<rect x="44.6" y="216.3" class="st1" width="133.7" height="7.4"/>
<rect x="44.6" y="245.8" class="st1" width="133.7" height="7.4"/>
<rect x="44.6" y="275.4" class="st1" width="133.7" height="7.4"/>
<polyline class="st2" points="220.4,154.9 155.6,154.9 155.6,95.6 "/>
<line class="st3" x1="-1" y1="209" x2="396" y2="209"/>
<rect x="28" y="112" class="st4" width="338" height="193"/>
</svg>
