<?xml version="1.0" encoding="utf-8"?>
<!-- Generator: Adobe Illustrator 27.1.1, SVG Export Plug-In . SVG Version: 6.00 Build 0)  -->
<svg version="1.1" id="Calque_1" xmlns="http://www.w3.org/2000/svg" xmlns:xlink="http://www.w3.org/1999/xlink" x="0px" y="0px"
	 viewBox="0 0 24 24" style="enable-background:new 0 0 24 24;" xml:space="preserve">
<style type="text/css">
	.st0{display:none;}
	.st1{display:inline;fill:none;}
	.st2{display:inline;}
	.st3{display:none;opacity:0.19;}
	.st4{fill:#FFFFFF;}
</style>
<g id="Calque_1_00000007411469738925326410000013473187638605947790_" class="st0">
	<path class="st1" d="M0,0h24v24H0V0z M21,19c0,1.1-0.9,2-2,2H5c-1.1,0-2-0.9-2-2V5c0-1.1,0.9-2,2-2h14c1.1,0,2,0.9,2,2V19z"/>
	<path class="st2" d="M19,3H5C3.9,3,3,3.9,3,5v14c0,1.1,0.9,2,2,2h14c1.1,0,2-0.9,2-2V5C21,3.9,20.1,3,19,3z M7.5,18
		C6.7,18,6,17.3,6,16.5C6,15.7,6.7,15,7.5,15S9,15.7,9,16.5C9,17.3,8.3,18,7.5,18z M7.5,9C6.7,9,6,8.3,6,7.5S6.7,6,7.5,6
		S9,6.7,9,7.5S8.3,9,7.5,9z M12,13.5c-0.8,0-1.5-0.7-1.5-1.5s0.7-1.5,1.5-1.5s1.5,0.7,1.5,1.5S12.8,13.5,12,13.5z M16.5,18
		c-0.8,0-1.5-0.7-1.5-1.5c0-0.8,0.7-1.5,1.5-1.5c0.8,0,1.5,0.7,1.5,1.5C18,17.3,17.3,18,16.5,18z M16.5,9C15.7,9,15,8.3,15,7.5
		S15.7,6,16.5,6C17.3,6,18,6.7,18,7.5S17.3,9,16.5,9z"/>
</g>
<g id="Calque_2_00000170993219438566369080000012556811540704189059_" class="st3">
	<path class="st2" d="M19.8,21.2H4.4c-0.8,0-1.4-0.6-1.4-1.4V4.4C3,3.6,3.6,3,4.4,3h15.4c0.8,0,1.4,0.6,1.4,1.4v15.4
		C21.2,20.6,20.6,21.2,19.8,21.2z"/>
	<g class="st2">
		<path class="st4" d="M16.9,5.6c0.9,0,1.5,0.6,1.5,1.4s-0.6,1.4-1.5,1.4S15.4,7.8,15.4,7S16,5.6,16.9,5.6z"/>
		<path class="st4" d="M16.9,10.7c0.9,0,1.5,0.6,1.5,1.4s-0.6,1.4-1.5,1.4s-1.5-0.6-1.5-1.4C15.4,11.2,16,10.7,16.9,10.7z"/>
		<path class="st4" d="M16.9,15.8c0.9,0,1.5,0.6,1.5,1.4s-0.6,1.4-1.5,1.4s-1.5-0.6-1.5-1.4C15.4,16.3,16,15.8,16.9,15.8z"/>
		<path class="st4" d="M7.9,5.6c0.9,0,1.5,0.6,1.5,1.4S8.8,8.4,7.9,8.4S6.4,7.9,6.4,7C6.4,6.2,7,5.6,7.9,5.6z"/>
		<path class="st4" d="M7.9,10.7c0.9,0,1.5,0.6,1.5,1.4s-0.6,1.4-1.5,1.4s-1.5-0.6-1.5-1.4C6.4,11.2,7,10.7,7.9,10.7z"/>
		<path class="st4" d="M7.9,15.8c0.9,0,1.5,0.6,1.5,1.4s-0.6,1.4-1.5,1.4S6.4,18,6.4,17.2C6.4,16.3,7,15.8,7.9,15.8z"/>
	</g>
</g>
<g>
	<path d="M20.8,13.6c0,0.3-0.1,0.6-0.1,0.9c0.1,0.4,0.2,0.6,0.2,0.9c-0.1,0.2-0.9,0.7-2.4,1.6c-3.4,2.1-5,3.1-4.9,3.1
		c-0.1,0-0.3,0.2-0.6,0.4c-0.3,0.2-0.5,0.3-0.7,0.4c-0.6,0.3-1.1,0.4-1.5,0.3c-0.3-0.1-0.7-0.4-1.1-1c-0.1-0.2-0.3-0.4-0.5-0.7
		c-0.2-0.3-0.4-0.6-0.5-0.7c-0.5-0.6-1.7-2.3-3.8-5c-1-1.3-1.7-2.4-1.9-3.1C2.3,9.2,2.6,8.1,3.7,7.4c0.2-0.1,0.5-0.3,1-0.4
		c0.6-0.2,1-0.3,1.1-0.4c3.5-1.6,5.6-2.5,6.3-2.8c0.4,0.4,1.6,1.3,3.4,2.7c1.6,1.3,2.9,2.3,3.7,3c0.1,0.1,0.2,0.2,0.5,0.4
		s0.5,0.4,0.7,0.6c0.6,0.5,0.9,0.9,1,1.1c0,0.2-0.1,0.6-0.3,1C20.8,13.1,20.8,13.5,20.8,13.6z M12,4.6C10.8,5.2,8.1,6.3,4.5,8
		c1.9,2.4,4.1,4.9,6.6,7.6c1-0.5,2.5-1.2,4.5-2.1c2.1-0.9,3.6-1.6,4.5-2.1 M14.3,8.7c0,0-4.5,2.2-4.6,2.3c0-0.1-1.9-2.3-2-2.3
		l4.4-2.1 M20.4,15.2c-0.1-0.3-0.2-0.8-0.1-1.5c0.1-0.6,0.4-1,0.3-1.1c-1.1,0.5-2.5,1.2-4.4,2.1c-2.2,1-3.5,1.7-4.2,2.1
		c-0.1,0.4-0.3,0.9-0.2,1.6c0.1,0.6,0.1,1.1,0.3,1.6c1.1-0.5,2.6-1.4,4.3-2.4C18.3,16.4,19.5,15.6,20.4,15.2z"/>
</g>
</svg>
