<?xml version="1.0" encoding="utf-8"?>
<!-- Generator: Adobe Illustrator 27.1.1, SVG Export Plug-In . SVG Version: 6.00 Build 0)  -->
<svg version="1.1" id="Calque_1" xmlns="http://www.w3.org/2000/svg" xmlns:xlink="http://www.w3.org/1999/xlink" x="0px" y="0px"
	 viewBox="0 0 394.6 414" style="enable-background:new 0 0 394.6 414;" xml:space="preserve">
<style type="text/css">
	.st0{fill:#2055AA;}
	.st1{fill:#FFFFFF;}
	.st2{fill:#FFFFFF;stroke:#2055AA;stroke-width:2;stroke-miterlimit:10;}
	.st3{display:none;fill:none;stroke:#26FF1A;stroke-miterlimit:10;}
	.st4{display:none;fill:none;stroke:#FF1737;stroke-miterlimit:10;}
</style>
<g id="xxx">
	<path class="st0" d="M121.6,303.6H56.8c-16.1,0-29.1-13-29.1-29.1c0,0,0,0,0,0V141.9c0-16.1,13-29.1,29.1-29.1h280.1
		c16.1,0,29.1,13,29.1,29.1v132.7c0,16.1-13,29.1-29.1,29.1c0,0,0,0,0,0H196.2"/>
	<path class="st1" d="M116.2,227.1c7.9-0.1,15-3,21.3-8.8c3.2,1.5,5.7,2.7,7.3,3.5s3.9,2,6.7,3.5c2.2,1.2,4.4,2.5,6.5,3.9
		c1.5,1.1,3.3,2.6,5.3,4.3c1.7,1.4,3.2,3.1,4.4,5c1,1.8,1.8,3.6,2.4,5.6c0.7,2.2,1,4.5,1,6.8l0.2,16.6L62,268.7l-0.2-16.6
		c0.2-3.6,1.1-7.1,2.5-10.4c1.2-2.8,2.8-5.5,4.7-7.9c2.1-2.4,4.6-4.6,7.3-6.3c3.1-2.1,5.8-3.7,8.2-5c2.4-1.3,5.5-2.8,9.4-4.4
		C100.5,224.2,107.9,227.2,116.2,227.1z M115.4,153.7c-7.9,0.1-14.6,3.2-20.1,9.5c-11,13-10.8,32.1,0.4,44.9
		c5.6,6.1,12.4,9.1,20.3,9.1s14.6-3.2,20.1-9.5c11.1-13,10.9-32.2-0.4-44.9C130.1,156.6,123.3,153.6,115.4,153.7z"/>
</g>
<g id="yyy">
	<path class="st2" d="M313.5,146c15,12.9,22.6,30.5,23,52.9l-0.7,0.8c-5.4,1.3-8.8,1.4-10.1,0.3c-0.8-19.1-7.6-34.2-20.4-45.2
		c-12.2-10.5-28-14.9-47.4-13.1c-1.3-1.1-1.7-4.5-1.2-10l0.7-0.8C279.6,127.9,298.3,132.9,313.5,146z M297.8,162.8l1.1,0.9
		c10.8,9.3,16.1,22.1,15.7,38.4l-0.7,0.8c-5.5,0.9-8.7,0.8-9.8-0.1l-0.3-0.3c-0.3-12.7-4.9-22.9-13.8-30.5c-8.1-7-18.8-9.7-32-8.1
		l-0.4-0.3c-0.4-1.2-0.7-4.5-0.8-9.8l0.7-0.8C273.5,150.2,287,153.5,297.8,162.8z"/>
</g>
<line class="st3" x1="-1" y1="209" x2="396" y2="209"/>
<rect x="28" y="112" class="st4" width="338" height="193"/>
</svg>
