<?xml version="1.0" encoding="utf-8"?>
<!-- Generator: Adobe Illustrator 27.1.1, SVG Export Plug-In . SVG Version: 6.00 Build 0)  -->
<svg version="1.1" id="Calque_1" xmlns="http://www.w3.org/2000/svg" xmlns:xlink="http://www.w3.org/1999/xlink" x="0px" y="0px"
	 viewBox="0 0 24 24" style="enable-background:new 0 0 24 24;" xml:space="preserve">
<g>
	<path d="M11.9,6.2c-0.7,0-1.2,0.2-1.6,0.6s-0.6,1-0.7,1.7H6.4c0.1-1.7,0.6-3,1.6-4S10.3,3,11.9,3s2.9,0.5,3.9,1.5s1.5,2.3,1.5,3.9
		c0,0.9-0.2,1.6-0.5,2.2s-1,1.4-1.9,2.1c-0.6,0.5-1,1-1.2,1.5s-0.3,1.2-0.3,2.3h-3.2c0-1.4,0.2-2.5,0.5-3.3s0.9-1.5,1.7-2.2
		c0.8-0.6,1.3-1.1,1.5-1.5s0.3-0.8,0.3-1.2c0-0.7-0.2-1.2-0.6-1.6S12.5,6.2,11.9,6.2z M10.1,17.9h3.2v3.2h-3.2V17.9z"/>
</g>
</svg>
