<?xml version="1.0" encoding="utf-8"?>
<!-- Generator: Adobe Illustrator 25.4.1, SVG Export Plug-In . SVG Version: 6.00 Build 0)  -->
<svg version="1.1" xmlns="http://www.w3.org/2000/svg" xmlns:xlink="http://www.w3.org/1999/xlink" x="0px" y="0px"
	 viewBox="0 0 24 24" style="enable-background:new 0 0 24 24;" xml:space="preserve">
<style type="text/css">
	.st0{display:none;}
	.st1{fill:none;}
	.st2{display:inline;}
	.st3{fill:#FFFFFF;}
</style>
<g id="Calque_1" class="st0">
	<path class="st1" d="M0,0h24v24H0V0z M21,19c0,1.1-0.9,2-2,2H5c-1.1,0-2-0.9-2-2V5c0-1.1,0.9-2,2-2h14c1.1,0,2,0.9,2,2V19z"/>
	<path class="st2" d="M19,3H5C3.9,3,3,3.9,3,5v14c0,1.1,0.9,2,2,2h14c1.1,0,2-0.9,2-2V5C21,3.9,20.1,3,19,3z M7.5,18
		C6.7,18,6,17.3,6,16.5C6,15.7,6.7,15,7.5,15S9,15.7,9,16.5C9,17.3,8.3,18,7.5,18z M7.5,9C6.7,9,6,8.3,6,7.5S6.7,6,7.5,6
		S9,6.7,9,7.5S8.3,9,7.5,9z M12,13.5c-0.8,0-1.5-0.7-1.5-1.5s0.7-1.5,1.5-1.5s1.5,0.7,1.5,1.5S12.8,13.5,12,13.5z M16.5,18
		c-0.8,0-1.5-0.7-1.5-1.5c0-0.8,0.7-1.5,1.5-1.5s1.5,0.7,1.5,1.5C18,17.3,17.3,18,16.5,18z M16.5,9C15.7,9,15,8.3,15,7.5
		S15.7,6,16.5,6S18,6.7,18,7.5S17.3,9,16.5,9z"/>
</g>
<g id="totp" class="st0">
	<path class="st2" d="M19.8,21.2H4.4c-0.8,0-1.4-0.6-1.4-1.4V4.4C3,3.6,3.6,3,4.4,3h15.4c0.8,0,1.4,0.6,1.4,1.4v15.4
		C21.2,20.6,20.6,21.2,19.8,21.2z"/>
	<g class="st2">
		<path class="st3" d="M16.9,5.6c0.9,0,1.5,0.6,1.5,1.4c0,0.8-0.6,1.4-1.5,1.4c-0.9,0-1.5-0.6-1.5-1.4C15.4,6.2,16,5.6,16.9,5.6z"/>
		<path class="st3" d="M16.9,10.7c0.9,0,1.5,0.6,1.5,1.4s-0.6,1.4-1.5,1.4c-0.9,0-1.5-0.6-1.5-1.4C15.4,11.2,16,10.7,16.9,10.7z"/>
		<path class="st3" d="M16.9,15.8c0.9,0,1.5,0.6,1.5,1.4s-0.6,1.4-1.5,1.4c-0.9,0-1.5-0.6-1.5-1.4C15.4,16.3,16,15.8,16.9,15.8z"/>
		<path class="st3" d="M7.9,5.6c0.9,0,1.5,0.6,1.5,1.4c0,0.8-0.6,1.4-1.5,1.4C7,8.4,6.4,7.9,6.4,7C6.4,6.2,7,5.6,7.9,5.6z"/>
		<path class="st3" d="M7.9,10.7c0.9,0,1.5,0.6,1.5,1.4s-0.6,1.4-1.5,1.4c-0.9,0-1.5-0.6-1.5-1.4C6.4,11.2,7,10.7,7.9,10.7z"/>
		<path class="st3" d="M7.9,15.8c0.9,0,1.5,0.6,1.5,1.4s-0.6,1.4-1.5,1.4c-0.9,0-1.5-0.6-1.5-1.4C6.4,16.3,7,15.8,7.9,15.8z"/>
	</g>
</g>
<g id="Calque_3">
	<polyline points="3,10 3,12.1 4,12.1 4,21.2 9.7,21.2 9.7,14.4 14.3,14.4 14.3,21.2 20,21.2 20,12.1 21.2,12.1 21.2,10.2 12,1.9 
		3,10 	"/>
</g>
</svg>
