<?xml version="1.0" encoding="utf-8"?><!-- Uploaded to: SVG Repo, www.svgrepo.com, Generator: SVG Repo Mixer Tools -->
<svg width="800px" height="800px" viewBox="0 0 64 64" xmlns="http://www.w3.org/2000/svg" stroke-width="3" stroke="#000000" fill="none"><path d="M39.46,40.7V54.87a3.06,3.06,0,0,1-3.07,3.06H15.18a3.06,3.06,0,0,1-3.06-3.06V9.13a3.06,3.06,0,0,1,3.06-3.06H36.39a3.06,3.06,0,0,1,3.07,3.06V20"/><line x1="20.79" y1="10.34" x2="26.88" y2="10.34" stroke-linecap="round"/><line x1="24.27" y1="53.47" x2="27.31" y2="53.47" stroke-linecap="round"/><line x1="30.66" y1="10.34" x2="30.78" y2="10.34" stroke-linecap="round"/><line x1="12.12" y1="49.36" x2="39.46" y2="49.36"/><line x1="12.12" y1="14.75" x2="39.46" y2="14.75"/><path d="M24.88,20H49.74a2.14,2.14,0,0,1,2.14,2.14V38.56a2.14,2.14,0,0,1-2.14,2.14H24a2.14,2.14,0,0,1-2.14-2.14V23A3,3,0,0,1,24.88,20Z"/><line x1="21.88" y1="24.43" x2="51.88" y2="24.43"/><line x1="21.88" y1="28.26" x2="51.88" y2="28.26"/><path d="M46.15,32.67a2.37,2.37,0,0,0-1.43.49,2.33,2.33,0,1,0-1.42,4.18,2.27,2.27,0,0,0,1.42-.5,2.33,2.33,0,1,0,1.43-4.17Z"/></svg>