<svg id="Calque_1_-_copie" data-name="Calque 1 - copie" xmlns="http://www.w3.org/2000/svg" viewBox="0 0 394.61 413.99">
  <defs>
    <style>
      .cls-1 {
        fill: #2055aa;
      }
    </style>
  </defs>
  <path class="cls-1" d="M316.42,107.63c10.33-3.09,14.79-3.37,20.71-2.46a11.34,11.34,0,0,1,8.13,4.92,12.39,12.39,0,0,1,1.85,9.19,14.17,14.17,0,0,1-3.11,7q-2.42,2.81-10.12,8.16-34.75,24.57-75.6,72.78T190,302.47q-10.63,18.13-14.9,23.69a24.26,24.26,0,0,1-10.63,8q-6.36,2.44-22,0-11.46-1.75-15.54-4.1a17.46,17.46,0,0,1-6.38-6.12q-2.3-3.78-7.54-16.68-7.41-18.29-21.34-41-8.48-13.87-7.13-21.84,1.83-10.83,15-18.2t22.81-5.89q9.51,1.45,19.23,11.2c6.48,6.49,12.24,17.5,17.27,28.62,12.68-19,24.76-37.62,37-53.25,8.76-11.18,7.88-9.85,21.63-25.06,19.23-21.27,69.45-61.32,90.37-70.32"/>
</svg>
