<?xml version="1.0" encoding="utf-8"?>
<!-- Generator: Adobe Illustrator 25.4.1, SVG Export Plug-In . SVG Version: 6.00 Build 0)  -->
<svg version="1.1" xmlns="http://www.w3.org/2000/svg" xmlns:xlink="http://www.w3.org/1999/xlink" x="0px" y="0px"
	 viewBox="0 0 24 24" style="enable-background:new 0 0 24 24;" xml:space="preserve">
<style type="text/css">
	.st0{display:none;}
	.st1{fill:none;}
	.st2{display:inline;}
	.st3{fill:#FFFFFF;}
</style>
<g id="Calque_1" class="st0">
	<path class="st1" d="M0,0h24v24H0V0z M21,19c0,1.1-0.9,2-2,2H5c-1.1,0-2-0.9-2-2V5c0-1.1,0.9-2,2-2h14c1.1,0,2,0.9,2,2V19z"/>
	<path class="st2" d="M19,3H5C3.9,3,3,3.9,3,5v14c0,1.1,0.9,2,2,2h14c1.1,0,2-0.9,2-2V5C21,3.9,20.1,3,19,3z M7.5,18
		C6.7,18,6,17.3,6,16.5C6,15.7,6.7,15,7.5,15S9,15.7,9,16.5C9,17.3,8.3,18,7.5,18z M7.5,9C6.7,9,6,8.3,6,7.5S6.7,6,7.5,6
		S9,6.7,9,7.5S8.3,9,7.5,9z M12,13.5c-0.8,0-1.5-0.7-1.5-1.5s0.7-1.5,1.5-1.5s1.5,0.7,1.5,1.5S12.8,13.5,12,13.5z M16.5,18
		c-0.8,0-1.5-0.7-1.5-1.5c0-0.8,0.7-1.5,1.5-1.5s1.5,0.7,1.5,1.5C18,17.3,17.3,18,16.5,18z M16.5,9C15.7,9,15,8.3,15,7.5
		S15.7,6,16.5,6S18,6.7,18,7.5S17.3,9,16.5,9z"/>
</g>
<g id="totp" class="st0">
	<path class="st2" d="M19.8,21.2H4.4c-0.8,0-1.4-0.6-1.4-1.4V4.4C3,3.6,3.6,3,4.4,3h15.4c0.8,0,1.4,0.6,1.4,1.4v15.4
		C21.2,20.6,20.6,21.2,19.8,21.2z"/>
	<g class="st2">
		<path class="st3" d="M16.9,5.6c0.9,0,1.5,0.6,1.5,1.4c0,0.8-0.6,1.4-1.5,1.4c-0.9,0-1.5-0.6-1.5-1.4C15.4,6.2,16,5.6,16.9,5.6z"/>
		<path class="st3" d="M16.9,10.7c0.9,0,1.5,0.6,1.5,1.4s-0.6,1.4-1.5,1.4c-0.9,0-1.5-0.6-1.5-1.4C15.4,11.2,16,10.7,16.9,10.7z"/>
		<path class="st3" d="M16.9,15.8c0.9,0,1.5,0.6,1.5,1.4s-0.6,1.4-1.5,1.4c-0.9,0-1.5-0.6-1.5-1.4C15.4,16.3,16,15.8,16.9,15.8z"/>
		<path class="st3" d="M7.9,5.6c0.9,0,1.5,0.6,1.5,1.4c0,0.8-0.6,1.4-1.5,1.4C7,8.4,6.4,7.9,6.4,7C6.4,6.2,7,5.6,7.9,5.6z"/>
		<path class="st3" d="M7.9,10.7c0.9,0,1.5,0.6,1.5,1.4s-0.6,1.4-1.5,1.4c-0.9,0-1.5-0.6-1.5-1.4C6.4,11.2,7,10.7,7.9,10.7z"/>
		<path class="st3" d="M7.9,15.8c0.9,0,1.5,0.6,1.5,1.4s-0.6,1.4-1.5,1.4c-0.9,0-1.5-0.6-1.5-1.4C6.4,16.3,7,15.8,7.9,15.8z"/>
	</g>
</g>
<g id="home3" class="st0">
	<polyline class="st2" points="3,10 3,12.1 4,12.1 4,21.2 9.7,21.2 9.7,14.4 14.3,14.4 14.3,21.2 20,21.2 20,12.1 21.2,12.1 
		21.2,10.2 12,1.9 3,10 	"/>
</g>
<g id="edit" class="st0">
	<path class="st2" d="M3,17.4v3.8h3.8L18,10l-3.8-3.8L3,17.4z M20.9,7.1c0.4-0.4,0.4-1,0-1.4l-2.4-2.4c-0.4-0.4-1-0.4-1.4,0
		l-1.9,1.9L19.1,9C19.1,9,20.9,7.1,20.9,7.1z"/>
</g>
<g id="QRcode">
	<path d="M15.2,21.2h-2v-2h2V21.2z M13.1,14.1h-2v5.1h2V14.1z M21.2,12.1h-2v4.1h2V12.1z M19.2,10.1h-2v2h2V10.1z M7.1,12.1H5v2h2
		V12.1z M5,10.1H3v2h2V10.1z M12.1,5h2V3h-2V5z M4.5,4.5v3h3v-3H4.5z M9.1,9.1H3V3h6.1V9.1z M4.5,16.7v3h3v-3H4.5z M9.1,21.2H3v-6.1
		h6.1V21.2z M16.7,4.5v3h3v-3H16.7z M21.2,9.1h-6.1V3h6.1V9.1z M19.2,19.2v-3h-4.1v2h2v3h4.1v-2H19.2z M17.2,12.1h-4.1v2h4.1V12.1z
		 M13.1,10.1H7.1v2h2v2h2v-2h2V10.1z M14.1,9.1v-2h-2V5h-2v4.1H14.1z M6.8,5.3H5.3v1.5h1.5V5.3z M6.8,17.4H5.3V19h1.5V17.4z M19,5.3
		h-1.5v1.5H19V5.3z"/>
</g>
</svg>
