<svg xmlns="http://www.w3.org/2000/svg" viewBox="0 0 394.61 413.99">
  <defs>
    <style>
      .cls-1 {
        fill: #2055aa;
      }

      .cls-2 {
        fill: #fff;
      }
    </style>
  </defs>
  <g id="yyy">
    <g>
      <path class="cls-1" d="M121.63,286.36H56.78a29.1,29.1,0,0,1-29.11-29.1V124.56A29.11,29.11,0,0,1,56.78,95.45H336.92A29.11,29.11,0,0,1,366,124.56v132.7a29.1,29.1,0,0,1-29.11,29.1H196.18"/>
      <polyline class="cls-1" points="104.39 351.97 104.39 285.37 199.85 285.37"/>
      <g>
        <path class="cls-2" d="M119.21,192.17c0-10.54,7.13-17.95,17.1-17.95s16.82,7.41,16.82,17.95c0,10.26-6.56,18-17.1,18C126.05,210.13,119.21,202.43,119.21,192.17Z"/>
        <path class="cls-2" d="M185.33,192.17c0-10.54,7.12-17.95,17.1-17.95s16.81,7.41,16.81,17.95c0,10.26-6.55,18-17.1,18C192.17,210.13,185.33,202.43,185.33,192.17Z"/>
        <path class="cls-2" d="M251.44,192.17c0-10.54,7.13-17.95,17.1-17.95s16.82,7.41,16.82,17.95c0,10.26-6.56,18-17.1,18C258.28,210.13,251.44,202.43,251.44,192.17Z"/>
      </g>
    </g>
  </g>
</svg>
