<?xml version="1.0" encoding="utf-8"?>
<!-- Generator: Adobe Illustrator 27.1.0, SVG Export Plug-In . SVG Version: 6.00 Build 0)  -->
<svg version="1.1" id="Calque_1" xmlns="http://www.w3.org/2000/svg" xmlns:xlink="http://www.w3.org/1999/xlink" x="0px" y="0px"
	 viewBox="0 0 394.6 414" style="enable-background:new 0 0 394.6 414;" xml:space="preserve">
<style type="text/css">
	.st0{enable-background:new    ;}
	.st1{fill:#2055AA;}
</style>
<g class="st0">
	<path class="st1" d="M45.4,177.9c3.2-6.8,6-14.4,8.4-22.6c2.1-7,3.8-11.4,5-13.1c1.2-1.8,2.9-2.6,4.8-2.6c1.9,0,3.4,0.8,4.4,2.3
		c1,1.5,2.4,4.9,4,10.2c2.9,10,6.1,18.7,9.5,25.9c4.8,0,12.9-1.1,24.5-3.3c6.3-1.2,10.4-1.8,12.4-1.8c3.9,0,5.8,1.5,5.8,4.4
		c0,2.6-2.7,6.6-8.2,12.1c-6.6,6.5-12.1,13.1-16.6,19.6c4.9,6.9,10,13.2,15.5,18.9c5.9,6.2,8.8,10.5,8.8,12.9c0,3-2.1,4.5-6.3,4.5
		c-2.5,0-6.3-0.7-11.5-2c-8.9-2.4-17-3.7-24.5-4c-3.6,6.6-7,15.7-10.3,27.1c-1.6,5.6-2.8,9-3.7,10.4c-0.9,1.3-2.3,2-4.3,2
		c-2.4,0-4.2-0.9-5.4-2.8c-1.2-1.9-2.7-6-4.3-12.2c-2.4-9.4-5.5-17.5-9.4-24.4c-7.1,0-16.4,1.4-28,4.3c-4.5,1-7.7,1.6-9.5,1.6
		c-3.5,0-5.2-1.4-5.2-4.3c0-2.1,3.2-6.3,9.5-12.8c7.1-7.2,12.3-13.6,15.7-19.2c-6.8-9.3-12.8-16.4-18.1-21.3c-4.7-4.3-7-7.5-7-9.7
		c0-3.7,2.2-5.5,6.6-5.5c2.1,0,5.2,0.6,9.2,1.7C26.1,176.4,35.5,177.7,45.4,177.9z"/>
	<path class="st1" d="M179.9,177.9c3.2-6.8,6-14.4,8.4-22.6c2.1-7,3.8-11.4,5-13.1c1.2-1.8,2.9-2.6,4.8-2.6c1.9,0,3.4,0.8,4.4,2.3
		c1,1.5,2.4,4.9,4,10.2c2.9,10,6.1,18.7,9.5,25.9c4.8,0,12.9-1.1,24.5-3.3c6.3-1.2,10.4-1.8,12.4-1.8c3.9,0,5.8,1.5,5.8,4.4
		c0,2.6-2.7,6.6-8.2,12.1c-6.6,6.5-12.1,13.1-16.6,19.6c4.9,6.9,10,13.2,15.5,18.9c5.9,6.2,8.8,10.5,8.8,12.9c0,3-2.1,4.5-6.3,4.5
		c-2.5,0-6.3-0.7-11.5-2c-8.9-2.4-17-3.7-24.5-4c-3.6,6.6-7,15.7-10.3,27.1c-1.6,5.6-2.8,9-3.7,10.4c-0.9,1.3-2.3,2-4.3,2
		c-2.4,0-4.2-0.9-5.4-2.8c-1.2-1.9-2.7-6-4.3-12.2c-2.4-9.4-5.5-17.5-9.4-24.4c-7.1,0-16.4,1.4-28,4.3c-4.5,1-7.7,1.6-9.5,1.6
		c-3.5,0-5.2-1.4-5.2-4.3c0-2.1,3.2-6.3,9.5-12.8c7.1-7.2,12.3-13.6,15.7-19.2c-6.8-9.3-12.8-16.4-18.1-21.3c-4.7-4.3-7-7.5-7-9.7
		c0-3.7,2.2-5.5,6.6-5.5c2.1,0,5.2,0.6,9.2,1.7C160.5,176.4,169.9,177.7,179.9,177.9z"/>
	<path class="st1" d="M314.3,177.9c3.2-6.8,6-14.4,8.4-22.6c2.1-7,3.8-11.4,5-13.1c1.2-1.8,2.9-2.6,4.8-2.6c1.9,0,3.4,0.8,4.4,2.3
		c1,1.5,2.4,4.9,4,10.2c2.9,10,6.1,18.7,9.5,25.9c4.8,0,12.9-1.1,24.5-3.3c6.3-1.2,10.4-1.8,12.4-1.8c3.9,0,5.8,1.5,5.8,4.4
		c0,2.6-2.7,6.6-8.2,12.1c-6.6,6.5-12.1,13.1-16.6,19.6c4.9,6.9,10,13.2,15.5,18.9c5.9,6.2,8.8,10.5,8.8,12.9c0,3-2.1,4.5-6.3,4.5
		c-2.5,0-6.3-0.7-11.5-2c-8.9-2.4-17-3.7-24.5-4c-3.6,6.6-7,15.7-10.3,27.1c-1.6,5.6-2.8,9-3.7,10.4c-0.9,1.3-2.3,2-4.3,2
		c-2.4,0-4.2-0.9-5.4-2.8c-1.2-1.9-2.7-6-4.3-12.2c-2.4-9.4-5.5-17.5-9.4-24.4c-7.1,0-16.4,1.4-28,4.3c-4.5,1-7.7,1.6-9.5,1.6
		c-3.5,0-5.2-1.4-5.2-4.3c0-2.1,3.2-6.3,9.5-12.8c7.1-7.2,12.3-13.6,15.7-19.2c-6.8-9.3-12.8-16.4-18.1-21.3c-4.7-4.3-7-7.5-7-9.7
		c0-3.7,2.2-5.5,6.6-5.5c2.1,0,5.2,0.6,9.2,1.7C295,176.4,304.4,177.7,314.3,177.9z"/>
</g>
</svg>
